+++++++++++++++++++++++++++++++++++++++++++++++++++++++++++++++++++++++++++++++
The video proposed here does not contain any logos and off-screen commentaries.
+++++++++++++++++++++++++++++++++++++++++++++++++++++++++++++++++++++++++++++++

Brief media specs:
Video: 1280x720 (16:9) at 50.000 fps, ~6112 kbps
Audio: DTS 5.1 (48 kHz / 1510 kbps) 
Audio codec: DTS
Video codec: X.264
File format: MKV


Source file (grabbed from the feed) that have been used for encoding:
VIDEO SOURCE: MPEG2 4:2:2, 1080/50i, 35 Mbps
AUDIO SOURCE: Dolby E 5.1, 24-bit


Media info:

General

Format                                   : Matroska
Format version                           : Version 2
File size                                : 10.1 GiB
Duration                                 : 3h 9mn
Overall bit rate                         : 7 612 Kbps
Encoded date                             : UTC 2012-05-27 09:59:10
Writing application                      : mkvmerge v5.5.0 ('Healer') built on Apr  6 2012 21:43:24
Writing library                          : libebml v1.2.3 + libmatroska v1.3.0

Video

ID                                       : 1
Format                                   : AVC
Format/Info                              : Advanced Video Codec
Format profile                           : High@L4.1
Format settings, CABAC                   : Yes
Format settings, ReFrames                : 5 frames
Codec ID                                 : V_MPEG4/ISO/AVC
Duration                                 : 3h 9mn
Bit rate                                 : 5 951 Kbps
Width                                    : 1 280 pixels
Height                                   : 720 pixels
Display aspect ratio                     : 16:9
Frame rate                               : 50.000 fps
Color space                              : YUV
Chroma subsampling                       : 4:2:0
Bit depth                                : 8 bits
Scan type                                : Progressive
Bits/(Pixel*Frame)                       : 0.129
Stream size                              : 7.87 GiB (78%)
Writing library                          : x264 core 120 r2164 da19765
Language                                 : English
Default                                  : Yes
Forced                                   : No

Audio

ID                                       : 2
Format                                   : DTS
Format/Info                              : Digital Theater Systems
Codec ID                                 : A_DTS
Duration                                 : 3h 9mn
Bit rate mode                            : Constant
Bit rate                                 : 1 510 Kbps
Channel(s)                               : 6 channels
Channel positions                        : Front: L C R, Side: L R, LFE
Sampling rate                            : 48.0 KHz
Bit depth                                : 24 bits
Compression mode                         : Lossy
Delay relative to video                  : 7ms
Stream size                              : 2.00 GiB (20%)
Language                                 : English
Default                                  : Yes
Forced                                   : No